<?xml version="1.0" encoding="utf-8"?>
<!-- Generator: Adobe Illustrator 26.5.0, SVG Export Plug-In . SVG Version: 6.00 Build 0)  -->
<svg version="1.1" id="Layer_1" xmlns="http://www.w3.org/2000/svg" xmlns:xlink="http://www.w3.org/1999/xlink" x="0px" y="0px"
	 viewBox="0 0 500.56 83.99" style="enable-background:new 0 0 500.56 83.99;" xml:space="preserve">
<style type="text/css">
	.st0{fill:#01AEF0;}
</style>
<g>
	<path class="st0" d="M199.66,0h-2.86c-6.29,0-11.43,4.79-11.43,10.64v1.77v71.36h25.72V12.41v-1.77C211.1,4.79,205.95,0,199.66,0z"
		/>
	<path class="st0" d="M325.71,0.33C318.84-0.09,312,3.49,312,10.64v1.77V31.4h-7.44c-5.13-17.24-22.1-29.9-42.26-29.9
		c-24.22,0-43.86,18.27-43.86,40.81c0,22.54,19.64,40.81,43.86,40.81c20.66,0,37.97-13.29,42.62-31.19H312v31.84h25.72V12.41
		c0,0,0-1.77,0-1.77C337.72,4.06,331.64,0.7,325.71,0.33z M262.31,58.43c-9.57,0-17.33-7.22-17.33-16.12
		c0-8.91,7.76-16.12,17.33-16.12c9.57,0,17.33,7.22,17.33,16.12C279.63,51.21,271.88,58.43,262.31,58.43z"/>
	<path class="st0" d="M409.51,22.15c0,0,0-21.28,0-21.28c-2.09,0-4.19,0-6.28,0c-4.88,0-9.76,0-14.63,0c-5.56,0-11.13,0-16.69,0
		c-3.48,0-6.37,0-9.85,0.24c-7.74,0.54-15.4,4.12-17.99,11.35c-0.94,2.62-0.78,5.22-0.78,7.94c0,2.14,0,4.28,0,6.42
		c0,0.26,0,0.51,0,0.77c0,8.52,0,20.59,0,29.11c0,6.81-0.6,15.38,3.21,20.25c5.39,6.88,13.62,6.82,21.9,6.82c9.2,0,18.39,0,27.59,0
		c4.24,0,8.48,0,12.73,0v-20.4h-8.13V22.15H409.51z M378.25,63.36c-2.02,0-4.04,0-6.06,0c-1.5,0,0.81,0-0.68,0
		c-1.46,0-2.92,0.26-4.2-0.54c-1.63-1.02-2.96-2.6-2.96-4.46c0.01-5.81,0.01-15.18,0.01-20.99c0-3.53-0.2-7.12-0.02-10.64
		c0.1-2,2.49-4.58,4.72-4.61c4.33-0.07,4.86,0.02,9.19,0.02C378.25,22.15,378.25,63.36,378.25,63.36z"/>
	<path class="st0" d="M471.64,27.27c-0.34-5.71-1.53-10.97-5.45-15.93c-5.42-6.85-14.17-10.99-23.32-10.99
		c-7.9,0-15.57,3.07-21.01,8.41c-6.12,6.02-7.85,13.26-7.89,21.29c-0.07,14.78-0.03,29.57-0.03,44.36c0,3.12,0,6.23,0,9.35
		c0,0,25.72,0,25.72,0V53.73V29.74c0-2.62,0.38-4.75,3.2-4.75c2.82,0,3.2,2.13,3.2,4.75v23.99v30.03c0,0,25.72,0,25.72,0
		c0-7.71,0-15.42,0-23.12c0-9.6,0.01-19.2-0.02-28.8C471.76,30.29,471.73,28.76,471.64,27.27z"/>
	<path class="st0" d="M179.08,10.72c-0.68-2.37-1.98-4.47-4.16-6.3c-3.65-3.06-7.88-3.31-12.59-3.34
		c-5.6-0.03-11.19,0.08-16.79,0.08c-5.83,0-11.66,0-17.49,0c-0.31,0-0.61,0-0.92,0c-0.4-0.04-0.81-0.06-1.22-0.06
		c-6.25,0-11.32,4.71-11.32,10.53c0,5.81,5.05,10.51,11.28,10.53c9.13,0,14.45,0.01,23.58,0c2.47,0,3.64,0.04,5.27,1.87
		c0.71,0.79,1,1.46,1,2.51c-0.02,11.23-0.01,22.45-0.01,33.68c0,7.6,0,15.21,0,22.81c0,0.25,0,0.49,0,0.74c0,0,23.8,0,23.8,0
		c0-1.96,0-3.91,0-5.87c0-4.81,0-9.63,0-14.44c0-6.1,0-12.19,0-18.29c0-5.8,0-11.6,0-17.4c0-2.87,0.07-5.75,0.07-8.62
		C179.58,16.43,179.83,13.36,179.08,10.72z"/>
	<path class="st0" d="M99.63,0.22h-2.86c-6.29,0-11.43,4.79-11.43,10.64v1.77V31.4H63.43c-3.54,0-6.68,1.56-8.7,3.97
		c-1.54-0.85-3.2-1.74-3.08-1.58c0.05-4.69,0.06-7.62,0.06-12.31c0,0,15.92,0,15.92,0c1.79,0,3.35-0.28,4.65-0.85
		c1.31-0.57,2.35-1.31,3.12-2.22c0.77-0.91,1.35-1.95,1.71-3.13c0.37-1.18,0.55-2.34,0.55-3.47c0-1.14-0.17-4.07-0.49-5.25
		c-0.33-1.18-0.9-2.22-1.71-3.13c-0.82-0.91-1.86-1.67-3.12-2.28c-1.27-0.61-2.84-0.91-4.71-0.91H12.28c-1.88,0-3.47,0.3-4.77,0.91
		C6.2,1.74,5.14,2.5,4.32,3.41C3.5,4.32,2.91,5.37,2.55,6.54C2.18,7.72,2,10.65,2,11.79c0,1.14,0.18,2.3,0.55,3.47
		c0.37,1.18,0.98,2.22,1.84,3.13c0.86,0.91,1.92,1.65,3.18,2.22c1.26,0.57,2.83,0.85,4.71,0.85c2.23,0,4.47,0,6.7,0
		c2.77,0,6.38-0.16,9.14-0.01c0.16,0.01,0.11,2.54,0.1,2.82c-0.02,0.8-0.08,1.6-0.12,2.4c-0.11,1.78-0.26,1.79-0.44,3.57
		c-0.64,6.35-1.8,12.61-4.51,18.52c-1.8,3.91-4.4,7.22-7.14,10.19c-2.74,2.96-6.02,5.55-9.85,7.75c-2.45,1.44-3.98,3.34-4.59,5.7
		c-0.61,2.35-0.31,4.6,0.92,6.72c0.57,1.14,1.45,2.07,2.63,2.79c1.18,0.72,2.49,1.25,3.92,1.6c1.43,0.34,2.9,0.49,4.41,0.45
		c1.51-0.04,2.92-0.32,4.22-0.85c6.2-2.43,11.65-6.04,16.34-10.82s8.47-10.67,11.33-17.66c3.84,2.35,6.59,5.85,8.27,10.48
		c1.67,4.63,2.1,10.71,1.28,18.23h22.9c0.32-7.67-0.06-14.26-1.16-19.77c-0.89-4.44-2.22-8.31-3.96-11.66h12.68v32.06h25.72V12.63
		v-1.77C111.06,5.01,105.92,0.22,99.63,0.22z"/>
	<circle class="st0" cx="488.65" cy="72.02" r="11.91"/>
</g>
</svg>
