<?xml version="1.0" encoding="utf-8"?>
<!-- Generator: Adobe Illustrator 26.5.0, SVG Export Plug-In . SVG Version: 6.00 Build 0)  -->
<svg version="1.1" id="Layer_1" xmlns="http://www.w3.org/2000/svg" xmlns:xlink="http://www.w3.org/1999/xlink" x="0px" y="0px"
	 viewBox="0 0 500 500" style="enable-background:new 0 0 500 500;" xml:space="preserve">
<style type="text/css">
	.st0{fill:#01AEF0;}
	.st1{fill:#FFFFFF;}
</style>
<rect class="st0" width="500" height="500"/>
<g>
	<path class="st1" d="M201.45,210.22h-2.71c-5.96,0-10.83,4.53-10.83,10.08v1.68v67.59h24.36v-67.59v-1.68
		C212.28,214.75,207.41,210.22,201.45,210.22z"/>
	<path class="st1" d="M320.85,210.53c-6.5-0.4-12.98,3-12.98,9.76v1.68v17.99h-7.04c-4.86-16.33-20.94-28.33-40.03-28.33
		c-22.95,0-41.55,17.31-41.55,38.66c0,21.35,18.6,38.66,41.55,38.66c19.57,0,35.97-12.59,40.37-29.54h6.7v30.16h24.36v-67.59
		c0,0,0-1.68,0-1.68C332.24,214.07,326.47,210.88,320.85,210.53z M260.79,265.57c-9.07,0-16.41-6.84-16.41-15.27
		c0-8.44,7.35-15.27,16.41-15.27c9.07,0,16.41,6.84,16.41,15.27C277.21,258.73,269.86,265.57,260.79,265.57z"/>
	<path class="st1" d="M400.24,231.2c0,0,0-20.16,0-20.16c-1.98,0-3.97,0-5.95,0c-4.62,0-9.24,0-13.86,0c-5.27,0-10.54,0-15.81,0
		c-3.3,0-6.03,0-9.33,0.23c-7.33,0.51-14.59,3.91-17.04,10.75c-0.89,2.48-0.74,4.94-0.74,7.52c0,2.03,0,4.05,0,6.08
		c0,0.24,0,0.49,0,0.73c0,8.07,0,19.51,0,27.58c0,6.45-0.57,14.57,3.05,19.18c5.1,6.52,12.9,6.46,20.75,6.46c8.71,0,17.42,0,26.14,0
		c4.02,0,8.04,0,12.06,0v-19.33h-7.7V231.2H400.24z M370.63,270.24c-1.91,0-3.83,0-5.74,0c-1.42,0,0.77,0-0.65,0
		c-1.38,0-2.76,0.24-3.98-0.51c-1.55-0.96-2.8-2.46-2.8-4.22c0.01-5.51,0.01-14.38,0.01-19.88c0-3.34-0.19-6.74-0.02-10.08
		c0.1-1.9,2.36-4.34,4.47-4.37c4.1-0.07,4.6,0.02,8.71,0.02C370.63,231.2,370.63,270.24,370.63,270.24z"/>
	<path class="st1" d="M459.09,236.05c-0.32-5.41-1.45-10.39-5.17-15.09c-5.13-6.49-13.43-10.41-22.09-10.41
		c-7.49,0-14.75,2.91-19.9,7.97c-5.8,5.7-7.44,12.56-7.47,20.17c-0.06,14.01-0.02,28.01-0.02,42.02c0,2.95,0,5.9,0,8.86
		c0,0,24.36,0,24.36,0v-28.45V238.4c0-2.49,0.36-4.5,3.03-4.5c2.67,0,3.03,2.01,3.03,4.5v22.72v28.45c0,0,24.36,0,24.36,0
		c0-7.3,0-14.6,0-21.9c0-9.09,0.01-18.19-0.02-27.28C459.21,238.91,459.18,237.47,459.09,236.05z"/>
	<path class="st1" d="M181.95,220.38c-0.64-2.24-1.88-4.24-3.94-5.97c-3.46-2.9-7.46-3.14-11.92-3.17
		c-5.3-0.03-10.6,0.07-15.91,0.07c-5.52,0-11.04,0-16.57,0c-0.29,0-0.58,0-0.87,0c-0.38-0.04-0.76-0.06-1.16-0.06
		c-5.92,0-10.72,4.47-10.72,9.98c0,5.5,4.78,9.96,10.69,9.98c8.65,0,13.69,0.01,22.34,0c2.34,0,3.45,0.04,4.99,1.77
		c0.67,0.75,0.95,1.38,0.95,2.38c-0.02,10.64-0.01,21.27-0.01,31.91c0,7.2,0,14.41,0,21.61c0,0.23,0,0.47,0,0.7c0,0,22.54,0,22.54,0
		c0-1.85,0-3.7,0-5.56c0-4.56,0-9.12,0-13.68c0-5.77,0-11.55,0-17.32c0-5.49,0-10.99,0-16.48c0-2.72,0.07-5.44,0.06-8.17
		C182.43,225.79,182.67,222.88,181.95,220.38z"/>
	<path class="st1" d="M106.69,210.43h-2.71c-5.96,0-10.83,4.53-10.83,10.08v1.68v17.78H72.4c-3.35,0-6.33,1.48-8.24,3.76
		c-1.46-0.81-3.03-1.65-2.92-1.5c0.04-4.45,0.06-7.21,0.06-11.66c0,0,15.08,0,15.08,0c1.7,0,3.17-0.27,4.41-0.81
		c1.24-0.54,2.22-1.24,2.96-2.11c0.73-0.86,1.28-1.85,1.62-2.97c0.35-1.11,0.52-2.21,0.52-3.29c0-1.08-0.16-3.86-0.46-4.97
		c-0.31-1.11-0.85-2.1-1.62-2.97c-0.77-0.86-1.76-1.58-2.96-2.16c-1.2-0.57-2.69-0.86-4.47-0.86H23.95c-1.78,0-3.29,0.29-4.52,0.86
		c-1.24,0.58-2.24,1.29-3.02,2.16c-0.77,0.86-1.33,1.85-1.68,2.97c-0.35,1.12-0.52,3.89-0.52,4.97c0,1.08,0.17,2.18,0.52,3.29
		c0.35,1.12,0.93,2.1,1.74,2.97c0.81,0.86,1.82,1.57,3.02,2.11c1.2,0.54,2.68,0.81,4.46,0.81c2.12,0,4.23,0,6.35,0
		c2.62,0,6.04-0.15,8.66-0.01c0.15,0.01,0.1,2.41,0.09,2.68c-0.02,0.76-0.07,1.52-0.12,2.28c-0.1,1.69-0.25,1.7-0.42,3.39
		c-0.61,6.02-1.71,11.95-4.27,17.54c-1.7,3.71-4.17,6.84-6.76,9.65c-2.59,2.81-5.7,5.25-9.34,7.34c-2.32,1.37-3.77,3.17-4.35,5.4
		c-0.58,2.23-0.29,4.35,0.87,6.37c0.54,1.08,1.37,1.96,2.49,2.64c1.12,0.68,2.36,1.19,3.71,1.51c1.35,0.32,2.74,0.47,4.18,0.43
		c1.43-0.04,2.76-0.31,4-0.81c5.87-2.3,11.04-5.72,15.48-10.25c4.45-4.53,8.02-10.11,10.73-16.73c3.63,2.23,6.24,5.54,7.83,9.93
		c1.58,4.39,1.99,10.14,1.22,17.27H86c0.31-7.26-0.06-13.51-1.1-18.72c-0.84-4.21-2.11-7.87-3.75-11.05h12.01v30.37h24.36v-67.59
		v-1.68C117.52,214.96,112.65,210.43,106.69,210.43z"/>
	<circle class="st1" cx="475.21" cy="278.44" r="11.28"/>
</g>
</svg>
